<svg width="200" height="200" viewBox="0 0 200 200" fill="none" xmlns="http://www.w3.org/2000/svg">
<path d="M0 65C0 29.1015 29.1015 0 65 0H135C170.899 0 200 29.1015 200 65V135C200 170.899 170.899 200 135 200H65C29.1015 200 0 170.899 0 135V65Z" fill="white"/>
<path d="M132.864 62.24C139.008 62.24 144.432 63.44 149.136 65.84C153.936 68.24 157.68 71.936 160.368 76.928C163.056 81.824 164.4 88.16 164.4 95.936V140H146.4V98.24C146.4 91.424 144.912 86.336 141.936 82.976C138.96 79.616 134.688 77.936 129.12 77.936C125.184 77.936 121.68 78.8 118.608 80.528C115.632 82.256 113.28 84.8 111.552 88.16C109.92 91.52 109.104 95.792 109.104 100.976V140H91.104V98.24C91.104 91.424 89.616 86.336 86.64 82.976C83.664 79.616 79.392 77.936 73.824 77.936C69.888 77.936 66.384 78.8 63.312 80.528C60.336 82.256 57.984 84.8 56.256 88.16C54.624 91.52 53.808 95.792 53.808 100.976V140H35.808V63.104H52.944V83.552L49.92 77.504C52.512 72.512 56.256 68.72 61.152 66.128C66.144 63.536 71.808 62.24 78.144 62.24C85.344 62.24 91.584 64.016 96.864 67.568C102.24 71.12 105.792 76.496 107.52 83.696L100.464 81.248C102.96 75.488 107.088 70.88 112.848 67.424C118.608 63.968 125.28 62.24 132.864 62.24Z" fill="#E6C96E"/>
</svg>
