<svg width="200" height="200" viewBox="0 0 200 200" fill="none" xmlns="http://www.w3.org/2000/svg">
<g clip-path="url(#clip0_86_2)">
<path d="M0 50C0 22.3858 22.3858 0 50 0H150C177.614 0 200 22.3858 200 50V150C200 177.614 177.614 200 150 200H50C22.3858 200 0 177.614 0 150V50Z" fill="white"/>
<path d="M33.5952 144V62.1818H52.0256V76.0845H52.9844C54.6889 71.397 57.5121 67.7393 61.4538 65.1115C65.3956 62.4482 70.1009 61.1165 75.5696 61.1165C81.1094 61.1165 85.7791 62.4659 89.5788 65.1648C93.4141 67.8281 96.1129 71.468 97.6754 76.0845H98.5277C100.339 71.5391 103.393 67.9169 107.69 65.218C112.022 62.4837 117.153 61.1165 123.084 61.1165C130.612 61.1165 136.756 63.4957 141.514 68.2543C146.273 73.0128 148.652 79.9553 148.652 89.0817V144H129.316V92.0646C129.316 86.9865 127.967 83.2756 125.268 80.9318C122.569 78.5526 119.266 77.3629 115.36 77.3629C110.708 77.3629 107.068 78.8189 104.44 81.7308C101.848 84.6072 100.552 88.3537 100.552 92.9702V144H81.642V91.2656C81.642 87.0398 80.3636 83.6662 77.8068 81.1449C75.2855 78.6236 71.983 77.3629 67.8991 77.3629C65.1293 77.3629 62.608 78.0732 60.3352 79.4936C58.0625 80.8786 56.2514 82.8494 54.902 85.4062C53.5526 87.9276 52.8778 90.875 52.8778 94.2486V144H33.5952Z" fill="#0F1729"/>
<path d="M172.593 145.172C169.361 145.172 166.591 144.036 164.283 141.763C161.975 139.49 160.839 136.72 160.874 133.453C160.839 130.257 161.975 127.523 164.283 125.25C166.591 122.977 169.361 121.841 172.593 121.841C175.718 121.841 178.434 122.977 180.743 125.25C183.086 127.523 184.276 130.257 184.312 133.453C184.276 135.619 183.708 137.59 182.607 139.366C181.542 141.141 180.121 142.562 178.346 143.627C176.606 144.657 174.688 145.172 172.593 145.172Z" fill="#C49A3A"/>
</g>
<defs>
<clipPath id="clip0_86_2">
<path d="M0 50C0 22.3858 22.3858 0 50 0H150C177.614 0 200 22.3858 200 50V150C200 177.614 177.614 200 150 200H50C22.3858 200 0 177.614 0 150V50Z" fill="white"/>
</clipPath>
</defs>
</svg>
