<svg width="800" height="240" viewBox="0 0 800 240" fill="none" xmlns="http://www.w3.org/2000/svg">
<path d="M197.64 85.4C205.747 85.4 212.903 86.9833 219.11 90.15C225.443 93.3167 230.383 98.1933 233.93 104.78C237.477 111.24 239.25 119.6 239.25 129.86V188H215.5V132.9C215.5 123.907 213.537 117.193 209.61 112.76C205.683 108.327 200.047 106.11 192.7 106.11C187.507 106.11 182.883 107.25 178.83 109.53C174.903 111.81 171.8 115.167 169.52 119.6C167.367 124.033 166.29 129.67 166.29 136.51V188H142.54V132.9C142.54 123.907 140.577 117.193 136.65 112.76C132.723 108.327 127.087 106.11 119.74 106.11C114.547 106.11 109.923 107.25 105.87 109.53C101.943 111.81 98.84 115.167 96.56 119.6C94.4067 124.033 93.33 129.67 93.33 136.51V188H69.58V86.54H92.19V113.52L88.2 105.54C91.62 98.9533 96.56 93.95 103.02 90.53C109.607 87.11 117.08 85.4 125.44 85.4C134.94 85.4 143.173 87.7433 150.14 92.43C157.233 97.1167 161.92 104.21 164.2 113.71L154.89 110.48C158.183 102.88 163.63 96.8 171.23 92.24C178.83 87.68 187.633 85.4 197.64 85.4ZM315.385 189.33C304.998 189.33 295.752 187.113 287.645 182.68C279.538 178.12 273.142 171.913 268.455 164.06C263.768 156.207 261.425 147.277 261.425 137.27C261.425 127.137 263.768 118.207 268.455 110.48C273.142 102.627 279.538 96.4833 287.645 92.05C295.752 87.6167 304.998 85.4 315.385 85.4C325.898 85.4 335.208 87.6167 343.315 92.05C351.548 96.4833 357.945 102.563 362.505 110.29C367.192 118.017 369.535 127.01 369.535 137.27C369.535 147.277 367.192 156.207 362.505 164.06C357.945 171.913 351.548 178.12 343.315 182.68C335.208 187.113 325.898 189.33 315.385 189.33ZM315.385 169C321.212 169 326.405 167.733 330.965 165.2C335.525 162.667 339.072 158.993 341.605 154.18C344.265 149.367 345.595 143.73 345.595 137.27C345.595 130.683 344.265 125.047 341.605 120.36C339.072 115.547 335.525 111.873 330.965 109.34C326.405 106.807 321.275 105.54 315.575 105.54C309.748 105.54 304.555 106.807 299.995 109.34C295.562 111.873 292.015 115.547 289.355 120.36C286.695 125.047 285.365 130.683 285.365 137.27C285.365 143.73 286.695 149.367 289.355 154.18C292.015 158.993 295.562 162.667 299.995 165.2C304.555 167.733 309.685 169 315.385 169ZM392.246 188V86.54H414.856V114.47L412.196 106.3C415.236 99.46 419.986 94.2667 426.446 90.72C433.033 87.1733 441.203 85.4 450.956 85.4V108.01C449.943 107.757 448.993 107.63 448.106 107.63C447.219 107.503 446.333 107.44 445.446 107.44C436.453 107.44 429.296 110.1 423.976 115.42C418.656 120.613 415.996 128.403 415.996 138.79V188H392.246ZM513.004 189.33C501.858 189.33 493.244 186.48 487.164 180.78C481.084 174.953 478.044 166.403 478.044 155.13V64.12H501.794V154.56C501.794 159.373 502.998 163.11 505.404 165.77C507.938 168.43 511.421 169.76 515.854 169.76C521.174 169.76 525.608 168.367 529.154 165.58L535.804 182.49C533.018 184.77 529.598 186.48 525.544 187.62C521.491 188.76 517.311 189.33 513.004 189.33ZM461.324 106.3V87.3H528.964V106.3H461.324ZM555.342 188V47.02H579.092V188H555.342ZM618.624 226.19C613.684 226.19 608.744 225.367 603.804 223.72C598.864 222.073 594.747 219.793 591.454 216.88L600.954 199.4C603.36 201.553 606.084 203.263 609.124 204.53C612.164 205.797 615.267 206.43 618.434 206.43C622.74 206.43 626.224 205.353 628.884 203.2C631.544 201.047 634.014 197.437 636.294 192.37L642.184 179.07L644.084 176.22L682.464 86.54H705.264L657.764 196.17C654.597 203.77 651.05 209.787 647.124 214.22C643.324 218.653 639.017 221.757 634.204 223.53C629.517 225.303 624.324 226.19 618.624 226.19ZM639.524 191.61L593.734 86.54H618.434L655.674 174.13L639.524 191.61ZM724.667 188.95C721.881 188.95 719.474 187.937 717.447 185.91C715.547 183.883 714.597 181.413 714.597 178.5C714.597 175.46 715.547 172.99 717.447 171.09C719.474 169.19 721.881 168.24 724.667 168.24C727.454 168.24 729.797 169.19 731.697 171.09C733.724 172.99 734.737 175.46 734.737 178.5C734.737 181.413 733.724 183.883 731.697 185.91C729.797 187.937 727.454 188.95 724.667 188.95Z" fill="#2D3136"/>
</svg>
