<svg width="800" height="240" viewBox="0 0 800 240" fill="none" xmlns="http://www.w3.org/2000/svg">
<path d="M66.5497 188V84.3636H89.8949V101.974H91.1094C93.2685 96.0362 96.8445 91.4032 101.837 88.0746C106.83 84.701 112.79 83.0142 119.717 83.0142C126.734 83.0142 132.649 84.7235 137.462 88.142C142.32 91.5156 145.739 96.1262 147.718 101.974H148.798C151.092 96.2161 154.96 91.6281 160.403 88.2095C165.89 84.746 172.39 83.0142 179.902 83.0142C189.438 83.0142 197.22 86.0279 203.247 92.0554C209.275 98.0829 212.288 106.877 212.288 118.437V188H187.796V122.215C187.796 115.783 186.087 111.082 182.668 108.114C179.25 105.1 175.067 103.593 170.119 103.593C164.226 103.593 159.616 105.437 156.287 109.126C153.003 112.769 151.362 117.515 151.362 123.362V188H127.409V121.203C127.409 115.85 125.79 111.577 122.551 108.384C119.357 105.19 115.174 103.593 110.001 103.593C106.493 103.593 103.299 104.493 100.42 106.292C97.5417 108.046 95.2476 110.543 93.5384 113.781C91.8291 116.975 90.9744 120.708 90.9744 124.982V188H66.5497ZM272.773 190.024C262.653 190.024 253.881 187.798 246.459 183.344C239.037 178.891 233.28 172.661 229.187 164.655C225.138 156.648 223.114 147.292 223.114 136.587C223.114 125.881 225.138 116.503 229.187 108.451C233.28 100.399 239.037 94.147 246.459 89.6939C253.881 85.2408 262.653 83.0142 272.773 83.0142C282.894 83.0142 291.665 85.2408 299.087 89.6939C306.509 94.147 312.244 100.399 316.292 108.451C320.386 116.503 322.432 125.881 322.432 136.587C322.432 147.292 320.386 156.648 316.292 164.655C312.244 172.661 306.509 178.891 299.087 183.344C291.665 187.798 282.894 190.024 272.773 190.024ZM272.908 170.457C278.396 170.457 282.984 168.951 286.672 165.937C290.361 162.878 293.105 158.785 294.904 153.657C296.748 148.529 297.67 142.817 297.67 136.519C297.67 130.177 296.748 124.442 294.904 119.314C293.105 114.141 290.361 110.025 286.672 106.967C282.984 103.908 278.396 102.379 272.908 102.379C267.286 102.379 262.608 103.908 258.874 106.967C255.186 110.025 252.419 114.141 250.575 119.314C248.776 124.442 247.876 130.177 247.876 136.519C247.876 142.817 248.776 148.529 250.575 153.657C252.419 158.785 255.186 162.878 258.874 165.937C262.608 168.951 267.286 170.457 272.908 170.457ZM333.663 188V84.3636H357.346V101.636H358.425C360.314 95.6539 363.553 91.0433 368.141 87.8047C372.774 84.5211 378.059 82.8793 383.997 82.8793C385.346 82.8793 386.853 82.9467 388.517 83.0817C390.227 83.1716 391.644 83.3291 392.768 83.554V106.022C391.734 105.662 390.092 105.347 387.843 105.077C385.639 104.763 383.502 104.605 381.433 104.605C376.98 104.605 372.976 105.572 369.423 107.506C365.914 109.396 363.148 112.027 361.124 115.401C359.1 118.774 358.088 122.665 358.088 127.073V188H333.663ZM456.812 84.3636V103.256H397.235V84.3636H456.812ZM411.944 59.5341H436.368V156.828C436.368 160.112 436.863 162.631 437.853 164.385C438.887 166.094 440.237 167.264 441.901 167.893C443.565 168.523 445.409 168.838 447.434 168.838C448.963 168.838 450.357 168.726 451.617 168.501C452.921 168.276 453.911 168.073 454.586 167.893L458.701 186.988C457.397 187.438 455.53 187.933 453.101 188.472C450.717 189.012 447.793 189.327 444.33 189.417C438.212 189.597 432.702 188.675 427.799 186.651C422.896 184.581 419.006 181.388 416.127 177.07C413.293 172.751 411.899 167.354 411.944 160.876V59.5341ZM494.39 49.8182V188H469.966V49.8182H494.39ZM525.188 226.864C521.859 226.864 518.778 226.594 515.944 226.054C513.155 225.559 510.929 224.974 509.265 224.3L514.932 205.273C518.486 206.307 521.657 206.802 524.446 206.757C527.234 206.712 529.686 205.835 531.8 204.126C533.959 202.461 535.781 199.673 537.265 195.759L539.357 190.159L501.775 84.3636H527.684L551.569 162.631H552.649L576.601 84.3636H602.578L561.083 200.55C559.149 206.037 556.585 210.738 553.391 214.651C550.197 218.61 546.284 221.623 541.651 223.692C537.063 225.807 531.575 226.864 525.188 226.864Z" fill="#0F1729"/>
<path d="M618.531 189.484C614.438 189.484 610.93 188.045 608.006 185.166C605.082 182.287 603.643 178.779 603.688 174.641C603.643 170.592 605.082 167.129 608.006 164.25C610.93 161.371 614.438 159.932 618.531 159.932C622.49 159.932 625.931 161.371 628.855 164.25C631.823 167.129 633.33 170.592 633.375 174.641C633.33 177.384 632.611 179.881 631.216 182.13C629.867 184.379 628.067 186.178 625.818 187.528C623.614 188.832 621.185 189.484 618.531 189.484Z" fill="#C49A3A"/>
</svg>
