<svg width="567" height="178" viewBox="0 0 567 178" fill="none" xmlns="http://www.w3.org/2000/svg">
<path d="M3.40641e-05 138.182V34.5455H23.3452V52.1555H24.5597C26.7188 46.218 30.2948 41.585 35.2877 38.2564C40.2806 34.8828 46.2406 33.196 53.1676 33.196C60.1847 33.196 66.0997 34.9053 70.9127 38.3239C75.7706 41.6974 79.1892 46.308 81.1684 52.1555H82.2479C84.5419 46.398 88.4103 41.8099 93.853 38.3913C99.3407 34.9278 105.84 33.196 113.352 33.196C122.888 33.196 130.67 36.2098 136.697 42.2372C142.725 48.2647 145.739 57.0585 145.739 68.6186V138.182H121.246V72.397C121.246 65.9647 119.537 61.2642 116.119 58.2955C112.7 55.2817 108.517 53.7749 103.569 53.7749C97.6764 53.7749 93.0659 55.6191 89.7373 59.3075C86.4536 62.951 84.8118 67.6965 84.8118 73.544V138.182H60.8594V71.3849C60.8594 66.0322 59.2401 61.759 56.0015 58.5653C52.8078 55.3717 48.6246 53.7749 43.4517 53.7749C39.9432 53.7749 36.7496 54.6745 33.8708 56.4737C30.992 58.228 28.698 60.7244 26.9887 63.9631C25.2794 67.1567 24.4248 70.8902 24.4248 75.1634V138.182H3.40641e-05ZM206.224 140.206C196.103 140.206 187.332 137.979 179.91 133.526C172.488 129.073 166.73 122.843 162.637 114.837C158.589 106.83 156.564 97.474 156.564 86.7685C156.564 76.063 158.589 66.6844 162.637 58.6328C166.73 50.5812 172.488 44.3288 179.91 39.8757C187.332 35.4226 196.103 33.196 206.224 33.196C216.344 33.196 225.116 35.4226 232.537 39.8757C239.959 44.3288 245.694 50.5812 249.743 58.6328C253.836 66.6844 255.883 76.063 255.883 86.7685C255.883 97.474 253.836 106.83 249.743 114.837C245.694 122.843 239.959 129.073 232.537 133.526C225.116 137.979 216.344 140.206 206.224 140.206ZM206.359 120.639C211.846 120.639 216.434 119.132 220.123 116.119C223.811 113.06 226.555 108.967 228.354 103.839C230.198 98.7109 231.121 92.9983 231.121 86.701C231.121 80.3587 230.198 74.6236 228.354 69.4957C226.555 64.3229 223.811 60.2072 220.123 57.1484C216.434 54.0897 211.846 52.5604 206.359 52.5604C200.736 52.5604 196.058 54.0897 192.324 57.1484C188.636 60.2072 185.87 64.3229 184.025 69.4957C182.226 74.6236 181.327 80.3587 181.327 86.701C181.327 92.9983 182.226 98.7109 184.025 103.839C185.87 108.967 188.636 113.06 192.324 116.119C196.058 119.132 200.736 120.639 206.359 120.639ZM267.113 138.182V34.5455H290.796V51.8182H291.875C293.765 45.8357 297.003 41.2251 301.591 37.9865C306.224 34.7029 311.51 33.0611 317.447 33.0611C318.797 33.0611 320.303 33.1286 321.968 33.2635C323.677 33.3535 325.094 33.5109 326.218 33.7358V56.2038C325.184 55.844 323.542 55.5291 321.293 55.2592C319.089 54.9444 316.952 54.7869 314.883 54.7869C310.43 54.7869 306.427 55.754 302.873 57.6882C299.365 59.5774 296.598 62.2088 294.574 65.5824C292.55 68.956 291.538 72.8468 291.538 77.255V138.182H267.113ZM390.262 34.5455V53.4375H330.685V34.5455H390.262ZM345.394 9.71591H369.819V107.01C369.819 110.294 370.313 112.813 371.303 114.567C372.338 116.276 373.687 117.446 375.351 118.075C377.016 118.705 378.86 119.02 380.884 119.02C382.413 119.02 383.808 118.907 385.067 118.683C386.372 118.458 387.361 118.255 388.036 118.075L392.152 137.17C390.847 137.62 388.981 138.114 386.552 138.654C384.168 139.194 381.244 139.509 377.78 139.599C371.663 139.779 366.153 138.857 361.25 136.832C356.347 134.763 352.456 131.57 349.577 127.251C346.743 122.933 345.349 117.536 345.394 111.058V9.71591ZM427.841 1.43051e-06V138.182H403.416V1.43051e-06H427.841ZM458.638 177.045C455.31 177.045 452.228 176.776 449.395 176.236C446.606 175.741 444.379 175.156 442.715 174.482L448.382 155.455C451.936 156.489 455.107 156.984 457.896 156.939C460.685 156.894 463.136 156.017 465.25 154.308C467.409 152.643 469.231 149.854 470.716 145.941L472.807 140.341L435.226 34.5455H461.135L485.02 112.813H486.099L510.052 34.5455H536.028L494.533 150.732C492.599 156.219 490.035 160.92 486.841 164.833C483.648 168.791 479.734 171.805 475.101 173.874C470.513 175.988 465.025 177.045 458.638 177.045Z" fill="#0F1729"/>
<path d="M551.982 139.666C547.888 139.666 544.38 138.227 541.456 135.348C538.532 132.469 537.093 128.961 537.138 124.822C537.093 120.774 538.532 117.311 541.456 114.432C544.38 111.553 547.888 110.114 551.982 110.114C555.94 110.114 559.381 111.553 562.305 114.432C565.274 117.311 566.781 120.774 566.825 124.822C566.781 127.566 566.061 130.063 564.666 132.312C563.317 134.561 561.518 136.36 559.269 137.71C557.065 139.014 554.636 139.666 551.982 139.666Z" fill="#C49A3A"/>
</svg>
