<svg width="800" height="240" viewBox="0 0 800 240" fill="none" xmlns="http://www.w3.org/2000/svg">
<path d="M337.768 96.88C343.229 96.88 348.051 97.9467 352.232 100.08C356.499 102.213 359.827 105.499 362.216 109.936C364.605 114.288 365.8 119.92 365.8 126.832V166H349.8V128.88C349.8 122.821 348.477 118.299 345.832 115.312C343.187 112.325 339.389 110.832 334.44 110.832C330.941 110.832 327.827 111.6 325.096 113.136C322.451 114.672 320.36 116.933 318.824 119.92C317.373 122.907 316.648 126.704 316.648 131.312V166H300.648V128.88C300.648 122.821 299.325 118.299 296.68 115.312C294.035 112.325 290.237 110.832 285.288 110.832C281.789 110.832 278.675 111.6 275.944 113.136C273.299 114.672 271.208 116.933 269.672 119.92C268.221 122.907 267.496 126.704 267.496 131.312V166H251.496V97.648H266.728V115.824L264.04 110.448C266.344 106.011 269.672 102.64 274.024 100.336C278.461 98.032 283.496 96.88 289.128 96.88C295.528 96.88 301.075 98.4587 305.768 101.616C310.547 104.773 313.704 109.552 315.24 115.952L308.968 113.776C311.187 108.656 314.856 104.56 319.976 101.488C325.096 98.416 331.027 96.88 337.768 96.88ZM417.091 166.896C410.094 166.896 403.864 165.403 398.403 162.416C392.942 159.344 388.632 155.163 385.475 149.872C382.318 144.581 380.739 138.565 380.739 131.824C380.739 124.997 382.318 118.981 385.475 113.776C388.632 108.485 392.942 104.347 398.403 101.36C403.864 98.3733 410.094 96.88 417.091 96.88C424.174 96.88 430.446 98.3733 435.907 101.36C441.454 104.347 445.763 108.443 448.835 113.648C451.992 118.853 453.571 124.912 453.571 131.824C453.571 138.565 451.992 144.581 448.835 149.872C445.763 155.163 441.454 159.344 435.907 162.416C430.446 165.403 424.174 166.896 417.091 166.896ZM417.091 153.2C421.016 153.2 424.515 152.347 427.587 150.64C430.659 148.933 433.048 146.459 434.755 143.216C436.547 139.973 437.443 136.176 437.443 131.824C437.443 127.387 436.547 123.589 434.755 120.432C433.048 117.189 430.659 114.715 427.587 113.008C424.515 111.301 421.059 110.448 417.219 110.448C413.294 110.448 409.795 111.301 406.723 113.008C403.736 114.715 401.347 117.189 399.555 120.432C397.763 123.589 396.867 127.387 396.867 131.824C396.867 136.176 397.763 139.973 399.555 143.216C401.347 146.459 403.736 148.933 406.723 150.64C409.795 152.347 413.251 153.2 417.091 153.2ZM468.871 166V97.648H484.103V116.464L482.311 110.96C484.359 106.352 487.559 102.853 491.911 100.464C496.348 98.0747 501.852 96.88 508.423 96.88V112.112C507.74 111.941 507.1 111.856 506.503 111.856C505.906 111.771 505.308 111.728 504.711 111.728C498.652 111.728 493.831 113.52 490.247 117.104C486.663 120.603 484.871 125.851 484.871 132.848V166H468.871ZM550.224 166.896C542.715 166.896 536.912 164.976 532.816 161.136C528.72 157.211 526.672 151.451 526.672 143.856V82.544H542.672V143.472C542.672 146.715 543.483 149.232 545.104 151.024C546.811 152.816 549.157 153.712 552.144 153.712C555.728 153.712 558.715 152.773 561.104 150.896L565.584 162.288C563.707 163.824 561.403 164.976 558.672 165.744C555.941 166.512 553.125 166.896 550.224 166.896ZM515.408 110.96V98.16H560.976V110.96H515.408ZM578.746 166V71.024H594.746V166H578.746ZM621.378 191.728C618.05 191.728 614.722 191.173 611.394 190.064C608.066 188.955 605.293 187.419 603.074 185.456L609.474 173.68C611.095 175.131 612.93 176.283 614.978 177.136C617.026 177.989 619.117 178.416 621.25 178.416C624.151 178.416 626.498 177.691 628.29 176.24C630.082 174.789 631.746 172.357 633.282 168.944L637.25 159.984L638.53 158.064L664.386 97.648H679.746L647.746 171.504C645.613 176.624 643.223 180.677 640.578 183.664C638.018 186.651 635.117 188.741 631.874 189.936C628.717 191.131 625.218 191.728 621.378 191.728ZM635.458 168.432L604.61 97.648H621.25L646.338 156.656L635.458 168.432ZM692.818 166.64C690.941 166.64 689.319 165.957 687.954 164.592C686.674 163.227 686.034 161.563 686.034 159.6C686.034 157.552 686.674 155.888 687.954 154.608C689.319 153.328 690.941 152.688 692.818 152.688C694.695 152.688 696.274 153.328 697.554 154.608C698.919 155.888 699.602 157.552 699.602 159.6C699.602 161.563 698.919 163.227 697.554 164.592C696.274 165.957 694.695 166.64 692.818 166.64Z" fill="#2D3136"/>
<path d="M104 108.912V178H214V108.912L159 62L104 108.912Z" fill="#005A8C" stroke="#005A8C" stroke-width="10" stroke-linejoin="round"/>
</svg>
