<svg width="666" height="180" viewBox="0 0 666 180" fill="none" xmlns="http://www.w3.org/2000/svg">
<path d="M128.06 38.38C136.167 38.38 143.323 39.9633 149.53 43.13C155.863 46.2967 160.803 51.1733 164.35 57.76C167.897 64.22 169.67 72.58 169.67 82.84V140.98H145.92V85.88C145.92 76.8867 143.957 70.1733 140.03 65.74C136.103 61.3067 130.467 59.09 123.12 59.09C117.927 59.09 113.303 60.23 109.25 62.51C105.323 64.79 102.22 68.1467 99.94 72.58C97.7867 77.0133 96.71 82.65 96.71 89.49V140.98H72.96V85.88C72.96 76.8867 70.9967 70.1733 67.07 65.74C63.1433 61.3067 57.5067 59.09 50.16 59.09C44.9667 59.09 40.3433 60.23 36.29 62.51C32.3633 64.79 29.26 68.1467 26.98 72.58C24.8267 77.0133 23.75 82.65 23.75 89.49V140.98H-1.40071e-06V39.52H22.61V66.5L18.62 58.52C22.04 51.9333 26.98 46.93 33.44 43.51C40.0267 40.09 47.5 38.38 55.86 38.38C65.36 38.38 73.5933 40.7233 80.56 45.41C87.6533 50.0967 92.34 57.19 94.62 66.69L85.31 63.46C88.6033 55.86 94.05 49.78 101.65 45.22C109.25 40.66 118.053 38.38 128.06 38.38ZM245.805 142.31C235.418 142.31 226.172 140.093 218.065 135.66C209.958 131.1 203.562 124.893 198.875 117.04C194.188 109.187 191.845 100.257 191.845 90.25C191.845 80.1167 194.188 71.1867 198.875 63.46C203.562 55.6067 209.958 49.4633 218.065 45.03C226.172 40.5967 235.418 38.38 245.805 38.38C256.318 38.38 265.628 40.5967 273.735 45.03C281.968 49.4633 288.365 55.5433 292.925 63.27C297.612 70.9967 299.955 79.99 299.955 90.25C299.955 100.257 297.612 109.187 292.925 117.04C288.365 124.893 281.968 131.1 273.735 135.66C265.628 140.093 256.318 142.31 245.805 142.31ZM245.805 121.98C251.632 121.98 256.825 120.713 261.385 118.18C265.945 115.647 269.492 111.973 272.025 107.16C274.685 102.347 276.015 96.71 276.015 90.25C276.015 83.6633 274.685 78.0267 272.025 73.34C269.492 68.5267 265.945 64.8533 261.385 62.32C256.825 59.7867 251.695 58.52 245.995 58.52C240.168 58.52 234.975 59.7867 230.415 62.32C225.982 64.8533 222.435 68.5267 219.775 73.34C217.115 78.0267 215.785 83.6633 215.785 90.25C215.785 96.71 217.115 102.347 219.775 107.16C222.435 111.973 225.982 115.647 230.415 118.18C234.975 120.713 240.105 121.98 245.805 121.98ZM322.666 140.98V39.52H345.276V67.45L342.616 59.28C345.656 52.44 350.406 47.2467 356.866 43.7C363.453 40.1533 371.623 38.38 381.376 38.38V60.99C380.363 60.7367 379.413 60.61 378.526 60.61C377.639 60.4833 376.753 60.42 375.866 60.42C366.873 60.42 359.716 63.08 354.396 68.4C349.076 73.5933 346.416 81.3833 346.416 91.77V140.98H322.666ZM443.424 142.31C432.278 142.31 423.664 139.46 417.584 133.76C411.504 127.933 408.464 119.383 408.464 108.11V17.1H432.214V107.54C432.214 112.353 433.418 116.09 435.824 118.75C438.358 121.41 441.841 122.74 446.274 122.74C451.594 122.74 456.028 121.347 459.574 118.56L466.224 135.47C463.438 137.75 460.018 139.46 455.964 140.6C451.911 141.74 447.731 142.31 443.424 142.31ZM391.744 59.28V40.28H459.384V59.28H391.744ZM485.762 140.98V2.74181e-06H509.512V140.98H485.762ZM549.044 179.17C544.104 179.17 539.164 178.347 534.224 176.7C529.284 175.053 525.167 172.773 521.874 169.86L531.374 152.38C533.78 154.533 536.504 156.243 539.544 157.51C542.584 158.777 545.687 159.41 548.854 159.41C553.16 159.41 556.644 158.333 559.304 156.18C561.964 154.027 564.434 150.417 566.714 145.35L572.604 132.05L574.504 129.2L612.884 39.52H635.684L588.184 149.15C585.017 156.75 581.47 162.767 577.544 167.2C573.744 171.633 569.437 174.737 564.624 176.51C559.937 178.283 554.744 179.17 549.044 179.17ZM569.944 144.59L524.154 39.52H548.854L586.094 127.11L569.944 144.59ZM655.087 141.93C652.301 141.93 649.894 140.917 647.867 138.89C645.967 136.863 645.017 134.393 645.017 131.48C645.017 128.44 645.967 125.97 647.867 124.07C649.894 122.17 652.301 121.22 655.087 121.22C657.874 121.22 660.217 122.17 662.117 124.07C664.144 125.97 665.157 128.44 665.157 131.48C665.157 134.393 664.144 136.863 662.117 138.89C660.217 140.917 657.874 141.93 655.087 141.93Z" fill="white"/>
</svg>
